HIERARCHY
ROOT Hips
{
 OFFSET 0.000000 0.000000 0.000000
 CHANNELS 6 Xposition Yposition Zposition Yrotation Xrotation Zrotation
 JOINT Chest
 {
  OFFSET 0.000000 11.395451 -0.039534
  CHANNELS 3 Yrotation Xrotation Zrotation
  JOINT Chest2
  {
   OFFSET 0.000000 9.398669 0.071813
   CHANNELS 3 Yrotation Xrotation Zrotation
   JOINT Chest3
   {
    OFFSET 0.000000 8.489801 0.000000
    CHANNELS 3 Yrotation Xrotation Zrotation
    JOINT Chest4
    {
     OFFSET 0.000000 8.489801 0.000000
     CHANNELS 3 Yrotation Xrotation Zrotation
     JOINT Neck
     {
      OFFSET 0.000000 12.404889 0.000000
      CHANNELS 3 Yrotation Xrotation Zrotation
      JOINT Head
      {
       OFFSET 0.000000 8.903270 0.092239
       CHANNELS 3 Yrotation Xrotation Zrotation
       End Site
       {
        OFFSET 0.000000 17.592497 0.007158
       }
      }
     }
     JOINT RightCollar
     {
      OFFSET -3.196775 6.966722 0.000000
      CHANNELS 3 Yrotation Xrotation Zrotation
      JOINT RightShoulder
      {
       OFFSET -15.955896 0.000000 0.000000
       CHANNELS 3 Yrotation Xrotation Zrotation
       JOINT RightElbow
       {
        OFFSET -24.792472 0.000000 0.000000
        CHANNELS 3 Yrotation Xrotation Zrotation
        JOINT RightWrist
        {
         OFFSET -20.900115 0.000000 0.025002
         CHANNELS 3 Yrotation Xrotation Zrotation
         End Site
         {
          OFFSET -16.056692 0.000000 0.000000
         }
        }
       }
      }
     }
     JOINT LeftCollar
     {
      OFFSET 3.196775 6.966722 0.000000
      CHANNELS 3 Yrotation Xrotation Zrotation
      JOINT LeftShoulder
      {
       OFFSET 15.955896 0.000000 0.000000
       CHANNELS 3 Yrotation Xrotation Zrotation
       JOINT LeftElbow
       {
        OFFSET 24.792472 0.000000 0.000000
        CHANNELS 3 Yrotation Xrotation Zrotation
        JOINT LeftWrist
        {
         OFFSET 20.900115 0.000000 0.025002
         CHANNELS 3 Yrotation Xrotation Zrotation
         End Site
         {
          OFFSET 16.056692 0.000000 0.000000
         }
        }
       }
      }
     }
    }
   }
  }
 }
 JOINT RightHip
 {
  OFFSET -9.568995 0.193718 0.019767
  CHANNELS 3 Yrotation Xrotation Zrotation
  JOINT RightKnee
  {
   OFFSET 0.000000 -56.649296 0.015402
   CHANNELS 3 Yrotation Xrotation Zrotation
   JOINT RightAnkle
   {
    OFFSET 0.000000 -41.365147 0.021264
    CHANNELS 3 Yrotation Xrotation Zrotation
    JOINT RightToe
    {
     OFFSET 0.000000 -7.465940 17.672538
     CHANNELS 3 Yrotation Xrotation Zrotation
     End Site
     {
      OFFSET 0.000000 -1.736315 7.837145
     }
    }
   }
  }
 }
 JOINT LeftHip
 {
  OFFSET 9.568995 0.193718 0.019767
  CHANNELS 3 Yrotation Xrotation Zrotation
  JOINT LeftKnee
  {
   OFFSET 0.000000 -56.649296 0.015402
   CHANNELS 3 Yrotation Xrotation Zrotation
   JOINT LeftAnkle
   {
    OFFSET 0.000000 -41.365147 0.021264
    CHANNELS 3 Yrotation Xrotation Zrotation
    JOINT LeftToe
    {
     OFFSET 0.000000 -7.465940 17.672538
     CHANNELS 3 Yrotation Xrotation Zrotation
     End Site
     {
      OFFSET 0.000000 -1.736315 7.837145
     }
    }
   }
  }
 }
}
MOTION
Frames: 7
Frame Time: 0.016667
-107.527821 106.491336 443.308039 -0.352582 -9.426929 0.073654 -0.287690 6.091053 0.283911 -0.131407 2.706959 0.129780 -0.131407 2.706959 0.129780 -0.099112 2.030191 0.097899 2.435325 14.106731 -1.251661 5.079670 -9.889315 -3.314213 -1.283952 8.034272 7.357068 14.337955 -12.580366 75.446620 2.448125 -1.922489 -0.761180 -2.584798 -0.371292 2.343308 -4.675417 7.387165 -7.132322 -4.061714 -15.767360 -76.873106 -2.305282 1.304148 -2.489390 5.935205 -1.161031 -1.918203 3.740626 13.583652 3.218504 -0.699898 3.507222 -1.043449 -3.257297 -9.484729 -2.885386 -0.000000 -0.000000 0.000000 2.247572 12.910856 0.800206 -1.070708 6.971110 -0.000296 3.069146 -9.920903 0.536295 0.000000 -0.000000 0.000000
-107.515580 106.483395 443.230778 -0.376084 -9.383780 0.094469 -0.280171 6.048678 0.281684 -0.128018 2.688131 0.128670 -0.128018 2.688131 0.128670 -0.096562 2.016071 0.097048 2.441653 14.126665 -1.246266 5.088462 -9.852302 -3.305437 -1.281179 8.049428 7.352771 14.345958 -12.550732 75.571838 2.429687 -1.942284 -0.804128 -2.577525 -0.371963 2.270247 -4.612437 7.409862 -7.137471 -4.110622 -15.652382 -76.924850 -2.323214 1.298576 -2.468486 5.884706 -1.160845 -1.897045 3.764374 13.482071 3.268219 -0.761534 3.507556 -1.239254 -3.235427 -9.449376 -2.741334 0.000000 -0.000000 -0.000000 2.286017 12.780736 0.793505 -1.142892 7.064826 -0.060349 3.103354 -9.993211 0.554909 0.000000 0.000000 0.000000
-107.503340 106.475453 443.153516 -0.399568 -9.340624 0.115264 -0.272638 6.006304 0.279463 -0.124623 2.669304 0.127563 -0.124623 2.669304 0.127563 -0.094008 2.001952 0.096200 2.447975 14.146599 -1.240864 5.097243 -9.815289 -3.296647 -1.278408 8.064585 7.348477 14.353943 -12.521129 75.697072 2.411304 -1.962130 -0.847072 -2.570240 -0.372631 2.197188 -4.549451 7.432585 -7.142541 -4.159618 -15.537404 -76.976584 -2.341149 1.292995 -2.447584 5.834209 -1.160643 -1.875884 3.788100 13.380494 3.317902 -0.822975 3.507649 -1.435110 -3.213557 -9.414049 -2.597262 0.000000 0.000000 0.000000 2.324501 12.650630 0.786742 -1.215124 7.158476 -0.120599 3.137484 -10.065543 0.573543 0.000000 -0.000000 0.000000
-107.491356 106.469324 443.078004 -0.418684 -9.301094 0.129939 -0.266874 5.967545 0.280069 -0.122051 2.652081 0.127737 -0.122051 2.652081 0.127737 -0.092076 1.989035 0.096316 2.453639 14.164087 -1.235953 5.105103 -9.782822 -3.288658 -1.276967 8.079370 7.344882 14.358879 -12.494101 75.811547 2.395893 -1.979174 -0.885153 -2.562633 -0.373106 2.128760 -4.491773 7.455202 -7.148388 -4.206311 -15.432067 -77.025802 -2.357777 1.288506 -2.425755 5.787702 -1.159174 -1.855370 3.802134 13.286984 3.362045 -0.873404 3.509242 -1.606380 -3.191991 -9.380343 -2.469802 0.000000 -0.000000 0.000000 2.356986 12.530239 0.784606 -1.278759 7.244467 -0.173677 3.168390 -10.127529 0.588722 0.000000 0.000000 0.000000
-107.479490 106.465965 443.004466 -0.430332 -9.265753 0.135199 -0.264200 5.933811 0.285059 -0.120909 2.637087 0.129900 -0.120909 2.637087 0.129900 -0.091227 1.977790 0.097930 2.458636 14.177852 -1.232068 5.112296 -9.757239 -3.282541 -1.277770 8.092890 7.342376 14.358985 -12.471087 75.910081 2.385073 -1.992480 -0.915437 -2.554163 -0.372759 2.066364 -4.441883 7.477705 -7.155006 -4.250792 -15.341073 -77.072219 -2.372054 1.286771 -2.400830 5.747020 -1.155261 -1.835631 3.797664 13.204495 3.397272 -0.905447 3.514068 -1.741229 -3.170027 -9.349400 -2.366751 0.000000 -0.000000 0.000000 2.378647 12.422944 0.789741 -1.329115 7.319610 -0.216200 3.194946 -10.174283 0.598378 -0.000000 -0.000000 -0.000000
-107.467881 106.464417 442.932677 -0.437632 -9.234048 0.134356 -0.263307 5.903692 0.292873 -0.120595 2.623696 0.133341 -0.120595 2.623696 0.133341 -0.091004 1.967746 0.100507 2.462977 14.189172 -1.228677 5.118570 -9.736201 -3.277234 -1.279907 8.106035 7.340563 14.356050 -12.450609 75.997838 2.377198 -2.002948 -0.940864 -2.545368 -0.372211 2.008600 -4.397307 7.500097 -7.162437 -4.292940 -15.259729 -77.116131 -2.385015 1.286124 -2.374971 5.710335 -1.150094 -1.816531 3.783510 13.130081 3.427021 -0.926607 3.520551 -1.851459 -3.148346 -9.320074 -2.280322 0.000000 -0.000000 0.000000 2.394252 12.325348 0.799539 -1.370850 7.387132 -0.251441 3.218340 -10.210676 0.604563 0.000000 -0.000000 -0.000000
-107.457195 106.463618 442.863714 -0.445575 -9.207950 0.131226 -0.262029 5.876572 0.301656 -0.120124 2.611639 0.137210 -0.120124 2.611639 0.137210 -0.090664 1.958703 0.103403 2.466039 14.199425 -1.224687 5.122261 -9.717241 -3.270358 -1.281972 8.121105 7.338961 14.352418 -12.430832 76.079550 2.370272 -2.010473 -0.965391 -2.537559 -0.373150 1.955898 -4.355926 7.522269 -7.171624 -4.330034 -15.183576 -77.155900 -2.398481 1.282677 -2.353748 5.676135 -1.145975 -1.798323 3.776447 13.062952 3.455990 -0.948419 3.525518 -1.947881 -3.129323 -9.290518 -2.203772 0.000000 -0.000000 0.000000 2.412133 12.236970 0.810804 -1.409322 7.449080 -0.281979 3.238914 -10.240970 0.609980 0.000000 0.000000 -0.000000
